<svg id="svg" version="1.1" width="250" height="249" xmlns="http://www.w3.org/2000/svg"><path d="M76.451 46.295 L 27.500 80.590 27.244 155.295 L 26.987 230.000 29.994 230.000 L 33.000 230.000 33.000 156.700 L 33.000 83.400 79.129 51.105 C 115.631 25.549,125.636 18.986,127.074 19.655 C 128.072 20.120,149.147 34.675,173.905 52.000 L 218.921 83.500 218.961 156.750 L 219.000 230.000 221.500 230.000 L 224.000 230.000 224.000 155.248 L 224.000 80.497 175.093 46.248 C 148.194 27.412,126.010 12.000,125.794 12.000 C 125.578 12.000,103.374 27.433,76.451 46.295 M100.000 176.500 L 100.000 230.000 126.000 230.000 L 152.000 230.000 152.000 176.500 L 152.000 123.000 126.000 123.000 L 100.000 123.000 100.000 176.500 " stroke="none" fill="black" fill-rule="evenodd"/></svg>